<svg width="200" height="200" viewBox="-8 -8 32 32"  fill="none" xmlns="http://www.w3.org/2000/svg" style="background-color:#D1607B;">
    <path
        d="M15 2.5V4.5H1V2.5C1 2.23478 1.10536 1.98043 1.29289 1.79289C1.48043 1.60536 1.73478 1.5 2 1.5H3.5V0H5V1.5H11V0H12.5V1.5H14C14.2652 1.5 14.5196 1.60536 14.7071 1.79289C14.8946 1.98043 15 2.23478 15 2.5ZM1 6H15V14C15 14.2652 14.8946 14.5196 14.7071 14.7071C14.5196 14.8946 14.2652 15 14 15H2C1.73478 15 1.48043 14.8946 1.29289 14.7071C1.10536 14.5196 1 14.2652 1 14V6ZM10 9.5C10 9.63261 10.0527 9.75979 10.1464 9.85355C10.2402 9.94732 10.3674 10 10.5 10H11.5C11.6326 10 11.7598 9.94732 11.8536 9.85355C11.9473 9.75979 12 9.63261 12 9.5V8.5C12 8.36739 11.9473 8.24021 11.8536 8.14645C11.7598 8.05268 11.6326 8 11.5 8H10.5C10.3674 8 10.2402 8.05268 10.1464 8.14645C10.0527 8.24021 10 8.36739 10 8.5V9.5ZM10 12.5C10 12.6326 10.0527 12.7598 10.1464 12.8536C10.2402 12.9473 10.3674 13 10.5 13H11.5C11.6326 13 11.7598 12.9473 11.8536 12.8536C11.9473 12.7598 12 12.6326 12 12.5V11.5C12 11.3674 11.9473 11.2402 11.8536 11.1464C11.7598 11.0527 11.6326 11 11.5 11H10.5C10.3674 11 10.2402 11.0527 10.1464 11.1464C10.0527 11.2402 10 11.3674 10 11.5V12.5ZM7 9.5C7 9.63261 7.05268 9.75979 7.14645 9.85355C7.24021 9.94732 7.36739 10 7.5 10H8.5C8.63261 10 8.75979 9.94732 8.85355 9.85355C8.94732 9.75979 9 9.63261 9 9.5V8.5C9 8.36739 8.94732 8.24021 8.85355 8.14645C8.75979 8.05268 8.63261 8 8.5 8H7.5C7.36739 8 7.24021 8.05268 7.14645 8.14645C7.05268 8.24021 7 8.36739 7 8.5V9.5ZM7 12.5C7 12.6326 7.05268 12.7598 7.14645 12.8536C7.24021 12.9473 7.36739 13 7.5 13H8.5C8.63261 13 8.75979 12.9473 8.85355 12.8536C8.94732 12.7598 9 12.6326 9 12.5V11.5C9 11.3674 8.94732 11.2402 8.85355 11.1464C8.75979 11.0527 8.63261 11 8.5 11H7.5C7.36739 11 7.24021 11.0527 7.14645 11.1464C7.05268 11.2402 7 11.3674 7 11.5V12.5ZM4 9.5C4 9.63261 4.05268 9.75979 4.14645 9.85355C4.24021 9.94732 4.36739 10 4.5 10H5.5C5.63261 10 5.75979 9.94732 5.85355 9.85355C5.94732 9.75979 6 9.63261 6 9.5V8.5C6 8.36739 5.94732 8.24021 5.85355 8.14645C5.75979 8.05268 5.63261 8 5.5 8H4.5C4.36739 8 4.24021 8.05268 4.14645 8.14645C4.05268 8.24021 4 8.36739 4 8.5V9.5ZM4 12.5C4 12.6326 4.05268 12.7598 4.14645 12.8536C4.24021 12.9473 4.36739 13 4.5 13H5.5C5.63261 13 5.75979 12.9473 5.85355 12.8536C5.94732 12.7598 6 12.6326 6 12.5V11.5C6 11.3674 5.94732 11.2402 5.85355 11.1464C5.75979 11.0527 5.63261 11 5.5 11H4.5C4.36739 11 4.24021 11.0527 4.14645 11.1464C4.05268 11.2402 4 11.3674 4 11.5V12.5Z"
        fill="#FF83A1"
    />
</svg>
