<svg width="16" height="16" viewBox="-8 -8 32 32"  fill="none" xmlns="http://www.w3.org/2000/svg" style="background-color:#FFFFF;">
    <path
        d="M5 0V2H11V0H5ZM14 1H12.5V3.5H3.5V1H2C1.73478 1 1.48043 1.10536 1.29289 1.29289C1.10536 1.48043 1 1.73478 1 2V15C1 15.2652 1.10536 15.5196 1.29289 15.7071C1.48043 15.8946 1.73478 16 2 16H14C14.2652 16 14.5196 15.8946 14.7071 15.7071C14.8946 15.5196 15 15.2652 15 15V2C15 1.73478 14.8946 1.48043 14.7071 1.29289C14.5196 1.10536 14.2652 1 14 1ZM13 13H3V11.5H13V13ZM13 10.25H3V8.75H13V10.25ZM13 7.5H3V6H13V7.5Z"
        fill="#61D8F2"
    />
</svg>
