<svg width="16" height="16" viewBox="-8 -8 32 32"  fill="none" xmlns="http://www.w3.org/2000/svg" style="background-color:#DFECF7;">
    <path
        d="M14 1H12.5V3.5H3.5V1H2C1.73478 1 1.48043 1.10536 1.29289 1.29289C1.10536 1.48043 1 1.73478 1 2V15C1 15.2652 1.10536 15.5196 1.29289 15.7071C1.48043 15.8946 1.73478 16 2 16H14C14.2652 16 14.5196 15.8946 14.7071 15.7071C14.8946 15.5196 15 15.2652 15 15V2C15 1.73478 14.8946 1.48043 14.7071 1.29289C14.5196 1.10536 14.2652 1 14 1ZM7.72 11.24C7.63904 11.3223 7.54253 11.3876 7.4361 11.4322C7.32966 11.4769 7.21542 11.4999 7.1 11.5C6.98588 11.5012 6.87275 11.4786 6.76776 11.4339C6.66278 11.3891 6.5682 11.3231 6.49 11.24L4.38 9.14L5.62 7.91L7.1 9.39L10.38 6.11L11.62 7.34L7.72 11.24ZM11 0V2H5V0H11Z"
        fill="#0050B2"
    />
</svg>
