<svg width="16" height="16" viewBox="-8 -8 32 32"  fill="none" xmlns="http://www.w3.org/2000/svg" style="background-color:#FFF3F1;">
    <path
        d="M8 0C6.41775 0 4.87103 0.469192 3.55544 1.34824C2.23985 2.22729 1.21447 3.47672 0.608967 4.93853C0.00346625 6.40034 -0.15496 8.00887 0.153721 9.56072C0.462403 11.1126 1.22433 12.538 2.34315 13.6569C3.46197 14.7757 4.88743 15.5376 6.43928 15.8463C7.99113 16.155 9.59966 15.9965 11.0615 15.391C12.5233 14.7855 13.7727 13.7602 14.6518 12.4446C15.5308 11.129 16 9.58225 16 8C16 5.87827 15.1571 3.84344 13.6569 2.34315C12.1566 0.842855 10.1217 0 8 0V0ZM9.663 3L9 8H7L6.337 3H9.663ZM8 12.756C7.6527 12.756 7.31319 12.653 7.02442 12.4601C6.73565 12.2671 6.51058 11.9929 6.37767 11.672C6.24476 11.3511 6.20999 10.998 6.27774 10.6574C6.3455 10.3168 6.51274 10.0039 6.75832 9.75832C7.0039 9.51274 7.31679 9.34549 7.65742 9.27774C7.99805 9.20998 8.35113 9.24476 8.67199 9.37767C8.99286 9.51057 9.26711 9.73564 9.46006 10.0244C9.65301 10.3132 9.756 10.6527 9.756 11C9.756 11.4657 9.57099 11.9124 9.24168 12.2417C8.91237 12.571 8.46572 12.756 8 12.756Z"
        fill="#C84633"
    />
</svg>
