<svg width="16" height="16" viewBox="-8 -8 32 32"  fill="none" xmlns="http://www.w3.org/2000/svg" style="background-color:#FFAFC6;">
    <path
        d="M10 2V9C10 9.55 9.55 10 9 10H2C1.45 10 1 9.55 1 9V2C1 1.45 1.45 1 2 1H9C9.55 1 10 1.45 10 2ZM14.5 1H11.5C11.22 1 11 1.22 11 1.5V4.5C11 4.78 11.22 5 11.5 5H14.5C14.78 5 15 4.78 15 4.5V1.5C15 1.22 14.78 1 14.5 1ZM14.5 6H11.5C11.22 6 11 6.22 11 6.5V9.5C11 9.78 11.22 10 11.5 10H14.5C14.78 10 15 9.78 15 9.5V6.5C15 6.22 14.78 6 14.5 6ZM10 14.5V11.5C10 11.22 9.78 11 9.5 11H6.5C6.22 11 6 11.22 6 11.5V14.5C6 14.78 6.22 15 6.5 15H9.5C9.78 15 10 14.78 10 14.5ZM5 14.5V11.5C5 11.22 4.78 11 4.5 11H1.5C1.22 11 1 11.22 1 11.5V14.5C1 14.78 1.22 15 1.5 15H4.5C4.78 15 5 14.78 5 14.5ZM14.5 11H11.5C11.22 11 11 11.22 11 11.5V14.5C11 14.78 11.22 15 11.5 15H14.5C14.78 15 15 14.78 15 14.5V11.5C15 11.22 14.78 11 14.5 11Z"
        fill="#FF83A1"
    />
</svg>
