<svg width="200" height="200" viewBox="-8 -8 32 32"  fill="none" xmlns="http://www.w3.org/2000/svg" style="background-color:#A5DC89;">
    <path
        d="M7.41799 14.341C5.79199 14.2849 4.25179 13.5976 3.12399 12.425L4.32399 10.765C5.14128 11.6476 6.23449 12.226 7.42399 12.405V8.848C5.52399 8.369 3.51699 7.686 3.51699 5.271C3.51699 3.392 5.04699 1.917 7.42399 1.714V0H8.89399V1.732C10.2782 1.85622 11.5809 2.44067 12.594 3.392L11.364 5C10.6815 4.34206 9.82402 3.89457 8.89399 3.711V6.881C10.811 7.397 12.876 8.116 12.876 10.581C12.876 12.462 11.659 14.102 8.89399 14.342V16H7.41799V14.341ZM7.41799 6.489V3.613C6.36799 3.724 5.72399 4.313 5.72399 5.124C5.72399 5.843 6.44099 6.212 7.41799 6.489ZM8.89399 9.235V12.425C10.165 12.225 10.681 11.484 10.681 10.784C10.681 9.954 9.90699 9.549 8.89399 9.235Z"
        fill="#4DBC15"
    />
</svg>
