<svg width="200" height="200" viewBox="-8 -8 32 32" fill="none" xmlns="http://www.w3.org/2000/svg" style="background-color:#B8EADA;">
    <g clip-path="url(#clip0_3473_21)">
        <path
            d="M16 12L10 16H3V13L3.91 12.09C4.09626 11.9031 4.31756 11.7548 4.56122 11.6535C4.80489 11.5523 5.06614 11.5001 5.33 11.5H9C9.26522 11.5 9.51957 11.6054 9.70711 11.7929C9.89464 11.9804 10 12.2348 10 12.5V13L13.08 11.15C13.3248 11.003 13.5974 10.9082 13.8806 10.8715C14.1638 10.8349 14.4515 10.8571 14.7257 10.9369C14.9999 11.0168 15.2547 11.1524 15.4739 11.3353C15.6932 11.5183 15.8723 11.7446 16 12ZM0 16H2V12H0V16ZM13 5C13 5.98891 12.7068 6.95561 12.1573 7.77785C11.6079 8.6001 10.827 9.24096 9.91342 9.6194C8.99979 9.99784 7.99445 10.0969 7.02455 9.90393C6.05464 9.711 5.16373 9.2348 4.46447 8.53553C3.7652 7.83627 3.289 6.94536 3.09607 5.97545C2.90315 5.00555 3.00216 4.00021 3.3806 3.08658C3.75904 2.17295 4.3999 1.39206 5.22215 0.842652C6.04439 0.293245 7.01109 0 8 0C9.32608 0 10.5979 0.526784 11.5355 1.46447C12.4732 2.40215 13 3.67392 13 5ZM11 3.79L9.94 2.73L7.22 5.46L6.06 4.3L5 5.36L6.69 7.05C6.7595 7.11978 6.84209 7.17516 6.93304 7.21294C7.024 7.25072 7.12151 7.27017 7.22 7.27017C7.31849 7.27017 7.416 7.25072 7.50696 7.21294C7.59791 7.17516 7.6805 7.11978 7.75 7.05L11 3.79Z"
            fill="#00CFAD"/>
        
    </g>
    <defs>
        <clipPath id="clip0_3473_21">
            <rect width="16" height="16" fill="white" />
        </clipPath>
    </defs>
</svg>