<svg width="16" height="16" viewBox="-8 -8 32 32"  fill="none" xmlns="http://www.w3.org/2000/svg" style="background-color:#FFF1D1;">

    <g clip-path="url(#clip0_1161_23)">
        <path
            d="M9.00758 0.428207C8.39634 4.91342 7.91344 5.39632 3.4282 6.00755C2.85726 6.08536 2.85726 6.91464 3.4282 6.99245C7.91344 7.60368 8.39634 8.08658 9.00758 12.5718C9.08539 13.1427 9.91466 13.1427 9.99247 12.5718C10.6037 8.0866 11.0866 7.60368 15.5718 6.99245C16.1427 6.91464 16.1427 6.08536 15.5718 6.00755C11.0866 5.39632 10.6037 4.9134 9.99247 0.428207C9.91466 -0.142735 9.08539 -0.142736 9.00758 0.428207ZM3.7983 9.25792C4.12403 11.5699 4.43011 11.8759 6.74206 12.2017C7.08595 12.2501 7.08595 12.7499 6.74206 12.7983C4.43011 13.1241 4.12403 13.4301 3.7983 15.7421C3.74985 16.086 3.25009 16.086 3.20163 15.7421C2.87591 13.4302 2.56982 13.1241 0.257901 12.7983C-0.0859923 12.7499 -0.0859923 12.2501 0.257901 12.2017C2.56982 11.8759 2.87591 11.5698 3.20163 9.25792C3.25009 8.91403 3.74985 8.91403 3.7983 9.25792Z"
            fill="#FFBE28"
        />
    </g>
    <defs>
        <clipPath id="clip0_1161_23">
            <rect width="16" height="16" fill="white" />
        </clipPath>
    </defs>
</svg>
